<svg xmlns="http://www.w3.org/2000/svg" width="14.636" height="11.5" viewBox="0 0 14.636 11.5"><defs><style>.a{fill:#d6d4d5;}</style></defs><g transform="translate(0 0)"><path class="a" d="M1.4,58.365q.278.2,1.674,1.164t2.14,1.49l.347.249q.265.192.441.31t.425.265a2.464,2.464,0,0,0,.47.22,1.294,1.294,0,0,0,.408.073h.016a1.3,1.3,0,0,0,.408-.073,2.467,2.467,0,0,0,.47-.22q.249-.147.425-.265t.441-.31q.265-.192.347-.249l3.822-2.655a3.88,3.88,0,0,0,1-1,2.157,2.157,0,0,0,.4-1.233A1.318,1.318,0,0,0,13.33,54.82H1.307a1.166,1.166,0,0,0-.968.425A1.649,1.649,0,0,0,0,56.306a1.908,1.908,0,0,0,.449,1.115A4.054,4.054,0,0,0,1.4,58.365Z" transform="translate(0 -54.82)"/><path class="a" d="M13.82,185.148q-2.679,1.813-4.067,2.818-.466.343-.756.535a4.662,4.662,0,0,1-.772.392,2.35,2.35,0,0,1-.9.2H7.31a2.351,2.351,0,0,1-.9-.2,4.664,4.664,0,0,1-.772-.392q-.29-.192-.755-.535-1.1-.809-4.059-2.818A4.326,4.326,0,0,1,0,184.437v6.485a1.258,1.258,0,0,0,.384.923,1.258,1.258,0,0,0,.923.384H13.33a1.311,1.311,0,0,0,1.307-1.307v-6.485A4.5,4.5,0,0,1,13.82,185.148Z" transform="translate(0 -180.729)"/></g></svg>